REM DIRINDEX 1\2,1\3
REM DIRNAME cjc133,folder01,folder02
TITLE ""
FILE "DISC1Track02.mp3" MP3
  TRACK 01 AUDIO
    TITLE "0:"
    INDEX 01 00:00:00
  TRACK 02 AUDIO
    TITLE "3:cjc133_0048"
    INDEX 01 00:00:13
  TRACK 03 AUDIO
    TITLE "0:"
    INDEX 01 00:00:70
  TRACK 04 AUDIO
    TITLE "2:cjc133_0049"
    INDEX 01 00:01:40
  TRACK 05 AUDIO
    TITLE "2:cjc133_0050"
    INDEX 01 00:03:74
  TRACK 06 AUDIO
    TITLE "2:cjc133_0051"
    INDEX 01 00:06:33
  TRACK 07 AUDIO
    TITLE "0:"
    INDEX 01 00:07:74
  TRACK 08 AUDIO
    TITLE "2:cjc133_0052"
    INDEX 01 00:08:48
  TRACK 09 AUDIO
    TITLE "2:cjc133_0053"
    INDEX 01 00:09:71
  TRACK 10 AUDIO
    TITLE "2:cjc133_0054"
    INDEX 01 00:12:44
  TRACK 11 AUDIO
    TITLE "0:"
    INDEX 01 00:14:23
  TRACK 12 AUDIO
    TITLE "2:cjc133_0055"
    INDEX 01 00:14:74
  TRACK 13 AUDIO
    TITLE "2:cjc133_0056"
    INDEX 01 00:16:04
  TRACK 14 AUDIO
    TITLE "2:cjc133_0057"
    INDEX 01 00:18:39
  TRACK 15 AUDIO
    TITLE "0:"
    INDEX 01 00:20:04
  TRACK 16 AUDIO
    TITLE "2:cjc133_0058"
    INDEX 01 00:20:57
  TRACK 17 AUDIO
    TITLE "2:cjc133_0059"
    INDEX 01 00:22:21
  TRACK 18 AUDIO
    TITLE "2:cjc133_0060"
    INDEX 01 00:24:65
  TRACK 19 AUDIO
    TITLE "0:"
    INDEX 01 00:26:40
  TRACK 20 AUDIO
    TITLE "2:cjc133_0061"
    INDEX 01 00:27:20
  TRACK 21 AUDIO
    TITLE "2:cjc133_0062"
    INDEX 01 00:28:15
  TRACK 22 AUDIO
    TITLE "2:cjc133_0063"
    INDEX 01 00:30:54
  TRACK 23 AUDIO
    TITLE "0:"
    INDEX 01 00:32:27
  TRACK 24 AUDIO
    TITLE "2:cjc133_0064"
    INDEX 01 00:33:05
  TRACK 25 AUDIO
    TITLE "2:cjc133_0065"
    INDEX 01 00:34:30
  TRACK 26 AUDIO
    TITLE "2:cjc133_0066"
    INDEX 01 00:36:70
  TRACK 27 AUDIO
    TITLE "0:"
    INDEX 01 00:38:47
  TRACK 28 AUDIO
    TITLE "2:cjc133_0067"
    INDEX 01 00:39:19
  TRACK 29 AUDIO
    TITLE "2:cjc133_0068"
    INDEX 01 00:40:36
  TRACK 30 AUDIO
    TITLE "2:cjc133_0069"
    INDEX 01 00:43:05
  TRACK 31 AUDIO
    TITLE "0:"
    INDEX 01 00:44:58
  TRACK 32 AUDIO
    TITLE "2:cjc133_0070"
    INDEX 01 00:45:33
  TRACK 33 AUDIO
    TITLE "2:cjc133_0071"
    INDEX 01 00:47:30
  TRACK 34 AUDIO
    TITLE "2:cjc133_0072"
    INDEX 01 00:50:09
  TRACK 35 AUDIO
    TITLE "0:"
    INDEX 01 00:51:69
  TRACK 36 AUDIO
    TITLE "2:cjc133_0073"
    INDEX 01 00:52:45
  TRACK 37 AUDIO
    TITLE "2:cjc133_0074"
    INDEX 01 00:54:03
  TRACK 38 AUDIO
    TITLE "2:cjc133_0075"
    INDEX 01 00:56:53
  TRACK 39 AUDIO
    TITLE "0:"
    INDEX 01 00:58:44
  TRACK 40 AUDIO
    TITLE "2:cjc133_0076"
    INDEX 01 00:59:20
  TRACK 41 AUDIO
    TITLE "2:cjc133_0077"
    INDEX 01 01:00:57
  TRACK 42 AUDIO
    TITLE "2:cjc133_0078"
    INDEX 01 01:03:73
  TRACK 43 AUDIO
    TITLE "0:"
    INDEX 01 01:06:14
  TRACK 44 AUDIO
    TITLE "2:cjc133_0079"
    INDEX 01 01:06:65
  TRACK 45 AUDIO
    TITLE "2:cjc133_0080"
    INDEX 01 01:08:31
  TRACK 46 AUDIO
    TITLE "2:cjc133_0081"
    INDEX 01 01:11:45
  TRACK 47 AUDIO
    TITLE "0:"
    INDEX 01 01:13:65
  TRACK 48 AUDIO
    TITLE "2:cjc133_0082"
    INDEX 01 01:14:43
  TRACK 49 AUDIO
    TITLE "2:cjc133_0083"
    INDEX 01 01:15:54
  TRACK 50 AUDIO
    TITLE "2:cjc133_0084"
    INDEX 01 01:18:56
  TRACK 51 AUDIO
    TITLE "0:"
    INDEX 01 01:20:73
  TRACK 52 AUDIO
    TITLE "2:cjc133_0085"
    INDEX 01 01:21:47
  TRACK 53 AUDIO
    TITLE "2:cjc133_0086"
    INDEX 01 01:23:30
  TRACK 54 AUDIO
    TITLE "2:cjc133_0087"
    INDEX 01 01:26:11
  TRACK 55 AUDIO
    TITLE "0:"
    INDEX 01 01:27:73
  TRACK 56 AUDIO
    TITLE "2:cjc133_0088"
    INDEX 01 01:28:49
  TRACK 57 AUDIO
    TITLE "2:cjc133_0089"
    INDEX 01 01:30:01
  TRACK 58 AUDIO
    TITLE "2:cjc133_0090"
    INDEX 01 01:32:53
  TRACK 59 AUDIO
    TITLE "0:"
    INDEX 01 01:34:32
  TRACK 60 AUDIO
    TITLE "2:cjc133_0091"
    INDEX 01 01:35:12
  TRACK 61 AUDIO
    TITLE "2:cjc133_0092"
    INDEX 01 01:36:72
  TRACK 62 AUDIO
    TITLE "2:cjc133_0093"
    INDEX 01 01:39:53
  TRACK 63 AUDIO
    TITLE "0:"
    INDEX 01 01:41:38
